<?xml version="1.0" standalone="no"?>
<!DOCTYPE svg PUBLIC "-//W3C//DTD SVG 1.1//EN" "http://www.w3.org/Graphics/SVG/1.1/DTD/svg11.dtd" >
<!--
2013-9-30: Created.
-->
<svg>
<metadata>
Created by iconfont
</metadata>
<defs>

<font id="iconfont" horiz-adv-x="1024" >
  <font-face
    font-family="iconfont"
    font-weight="500"
    font-stretch="normal"
    units-per-em="1024"
    ascent="896"
    descent="-128"
  />
    <missing-glyph />
    
    <glyph glyph-name="close" unicode="&#59046;" d="M762.88 105.98400000000004c-7.68 0-14.848 3.072-20.48 8.704L244.736 611.8399999999999c-11.264 11.264-11.264 30.208 0 41.472 11.264 11.264 30.208 11.264 41.472 0l497.152-497.152c11.264-11.264 11.264-30.208 0-41.472C777.728 109.05600000000004 770.56 105.98400000000004 762.88 105.98400000000004zM265.728 105.98400000000004c-7.68 0-14.848 3.072-20.48 8.704-11.264 11.264-11.264 30.208 0 41.472L742.4 653.312c11.264 11.264 30.208 11.264 41.472 0s11.264-30.208 0-41.472l-497.152-497.152C280.576 109.05600000000004 273.408 105.98400000000004 265.728 105.98400000000004z"  horiz-adv-x="1024" />

    
    <glyph glyph-name="edit" unicode="&#59041;" d="M224 282.51V192h90.51l271.53 271.53-90.51 90.51L224 282.51zM653.92 576.6700000000001l-45.25 45.25a32 32 0 0 1-45.25 0l-22.63-22.63 90.51-90.51 22.63 22.63a32 32 0 0 1-0.01 45.26zM224 128h576v-64H224z"  horiz-adv-x="1025" />

    
    <glyph glyph-name="drag2" unicode="&#58902;" d="M219.428571 310.85714299999995c-36.571429 0-73.142857-36.571429-73.142857-73.142857s36.571429-73.142857 73.142857-73.142857 73.142857 36.571429 73.142858 73.142857-36.571429 73.142857-73.142858 73.142857z m585.142858 146.285714c36.571429 0 73.142857 36.571429 73.142857 73.142857s-36.571429 73.142857-73.142857 73.142857-73.142857-36.571429-73.142858-73.142857 36.571429-73.142857 73.142858-73.142857zM219.428571 603.4285709999999c-36.571429 0-73.142857-36.571429-73.142857-73.142857s36.571429-73.142857 73.142857-73.142857 73.142857 36.571429 73.142858 73.142857-36.571429 73.142857-73.142858 73.142857z m585.142858-292.571428c-36.571429 0-73.142857-36.571429-73.142858-73.142857s36.571429-73.142857 73.142858-73.142857 73.142857 36.571429 73.142857 73.142857-36.571429 73.142857-73.142857 73.142857zM512 603.4285709999999c-36.571429 0-73.142857-36.571429-73.142857-73.142857s36.571429-73.142857 73.142857-73.142857 73.142857 36.571429 73.142857 73.142857-36.571429 73.142857-73.142857 73.142857z m0-292.571428c-36.571429 0-73.142857-36.571429-73.142857-73.142857s36.571429-73.142857 73.142857-73.142857 73.142857 36.571429 73.142857 73.142857-36.571429 73.142857-73.142857 73.142857z"  horiz-adv-x="1024" />

    
    <glyph glyph-name="video_play" unicode="&#59529;" d="M92.59163 888.875756v-175.409681l588.077547-329.465052-460.111316-245.981852V493.823048l-127.966231 71.344766v-686.04357l838.81674 504.876779z"  horiz-adv-x="1024" />

    
    <glyph glyph-name="comp_split" unicode="&#58889;" d="M77.926424 894.784943H409.113977c43.833926 0 77.926424-34.092499 77.926425-77.926424V485.670966c0-43.833926-34.092499-77.926424-77.926425-77.926424H77.926424C34.092499 407.744542 0 441.83704 0 485.670966V816.858519C0 860.692445 34.092499 894.784943 77.926424 894.784943zM77.926424 359.040402H409.113977c43.833926 0 77.926424-34.092499 77.926425-77.926425v-331.187553c0-43.833926-34.092499-77.926424-77.926425-77.926424H77.926424C34.092499-128 0-93.90750100000002 0-50.073576V281.113977c0 43.833926 34.092499 77.926424 77.926424 77.926425zM613.670966 359.040402h331.187553c43.833926 0 77.926424-34.092499 77.926424-77.926425v-331.187553c0-43.833926-34.092499-77.926424-77.926424-77.926424H613.670966c-43.833926 0-77.926424 34.092499-77.926424 77.926424V281.113977c0 43.833926 34.092499 77.926424 77.926424 77.926425zM832.839596 870.432873l165.593277-165.593277c29.222284-29.223283 29.222284-77.927423 0-112.019921l-165.593277-165.593277c-29.223283-29.222284-77.927423-29.222284-112.019921 0l-165.593277 165.593277c-29.222284 29.222284-29.222284 77.927423 0 112.019921l165.593277 165.593277c34.093497 34.092499 82.796639 34.092499 112.019921 0zM779.264243 816.858519L613.670966 651.265242 779.264243 485.670966l165.594276 165.593277-165.593277 165.594276z"  horiz-adv-x="1024" />

    
    <glyph glyph-name="comp_img" unicode="&#58891;" d="M814.542636 30.26176399999997c0-27.927782 0-41.890673-4.653963-51.1996-4.654964-4.654964-4.654964-9.309927-9.309928-13.963891H162.912727c-18.617855 0-23.272818 0-27.926782 4.653963-4.654964 4.654964-9.309927 4.654964-9.309927 13.963891-9.307927 9.309927-9.307927 18.617855-9.307927 46.545637V691.2016c0 27.926782 0 41.889673 4.653964 51.1996 4.654964 4.654964 4.654964 9.309927 9.309927 13.963891h32.580745c27.926782 0 46.545636 18.617855 46.545637 46.544636s-23.272818 46.545636-46.545637 46.545637c-37.235709 0-60.508527-4.654964-83.781345-18.618855-18.617855-13.962891-32.581745-32.580745-46.544637-55.853564-4.654964-23.272818-9.309927-41.890673-9.309927-83.781345v-656.284873c0-41.891673 4.654964-65.164491 13.963891-88.436309 9.309927-23.272818 23.272818-41.890673 46.545636-55.854564 18.617855-13.962891 41.889673-18.617855 79.126382-18.617854H767.998c37.235709 0 60.509527 4.654964 79.126382 18.617854 18.617855 13.963891 32.581745 32.581745 46.545636 55.854564 9.308927 23.271818 13.962891 46.544636 13.962891 88.435309 0 27.926782-18.617855 46.545636-46.544636 46.545637s-46.545636-23.272818-46.545637-51.1996zM256.002 896h651.630909c51.1996 0 93.090273-41.889673 93.090273-93.089273v-698.177545c0-51.1996-41.889673-93.089273-93.089273-93.089273H256.002c-51.1996 0-93.089273 41.889673-93.089273 93.089273V802.910727C162.912727 854.110327 204.8024 896 256.002 896zM558.544636 384.004c88.436309 0 162.908727 74.472418 162.908728 162.908727s-74.472418 162.906727-162.908728 162.906728-162.907727-74.472418-162.907727-162.907728S470.110327 384.004 558.545636 384.004zM721.453364 314.186545c65.162491 0 116.362091 51.1996 116.362091 116.362091s-51.1996 116.363091-116.362091 116.363091-116.363091-51.1996-116.363091-116.363091 51.1996-116.362091 116.363091-116.362091z m0 46.544637c-37.236709 0-69.818455 32.581745-69.818455 69.817454s32.581745 69.818455 69.818455 69.818455 69.817455-32.581745 69.817454-69.818455-32.581745-69.817455-69.817454-69.817454z m-418.906728-186.180546h558.541637c27.926782 0 46.544636 18.618855 46.544636 46.545637s-18.617855 46.544636-46.544636 46.544636H302.546636c-27.926782 0-46.544636-18.617855-46.544636-46.544636s18.617855-46.545636 46.544636-46.545637z"  horiz-adv-x="1024" />

    
    <glyph glyph-name="color_split" unicode="&#58880;" d="M128 896h1152c70.4 0 128-57.6 128-128v-768c0-70.4-57.6-128-128-128H128C57.6-128 0-70.39999999999998 0 0V768C0 838.4 57.6 896 128 896z"  horiz-adv-x="1408" />

    
    <glyph glyph-name="help" unicode="&#942322;" d="M512 896c281.6 0 512-230.4 512-512s-230.4-512-512-512S0 102.39999999999998 0 384 230.4 896 512 896z m0-934.4c236.8 0 422.4 192 422.4 422.4S742.4 806.4 512 806.4 89.6 614.4 89.6 384 275.2-38.39999999999998 512-38.39999999999998z m134.4 633.6c38.4-32 57.6-76.8 57.6-121.6 0-64-44.8-128-115.2-153.6-19.2-6.4-38.4-32-38.4-51.2v-25.6c0-6.4-6.4-6.4-12.8-6.4H480c-6.4 0-12.8 6.4-12.8 6.4v25.6c0 25.6 6.4 51.2 25.6 76.8 12.8 19.2 38.4 38.4 64 44.8 38.4 12.8 70.4 51.2 70.4 83.2 0 51.2-51.2 96-115.2 96s-115.2-44.8-115.2-96v-6.4c0-6.4-6.4-6.4-12.8-6.4h-57.6c-6.4 0-12.8 6.4-12.8 6.4v6.4c0 44.8 19.2 89.6 57.6 121.6 38.4 32 83.2 44.8 134.4 44.8 57.6 0 102.4-19.2 140.8-44.8zM467.2 108.79999999999995c0 25.6 19.2 44.8 51.2 44.8 25.6 0 51.2-19.2 51.2-44.8 0-25.6-19.2-44.8-51.2-44.8s-51.2 19.2-51.2 44.8z"  horiz-adv-x="1024" />

    
    <glyph glyph-name="main_text" unicode="&#58882;" d="M0 256h1024v64H0z m512 192h512v64H512z m0 192h512v64H512zM0 64h1024v64H0z m0-192h1036.8v64H0zM428.8 448H326.4l-32 102.4h-160l-32-102.4h-96l160 435.2h108.8L428.8 448zM275.2 620.8L224 768c0 6.4-6.4 19.2-6.4 38.4 0-12.8-6.4-25.6-6.4-38.4l-57.6-147.2h121.6z"  horiz-adv-x="1088" />

    
    <glyph glyph-name="solid_split" unicode="&#58883;" d="M1194.667-99.55600000000004h-1024c-79.645 0-142.223 62.578-142.223 142.223V725.333c0 79.645 62.578 142.223 142.223 142.223h1024c79.644 0 142.222-62.578 142.222-142.223v-682.666c0-79.645-62.578-142.223-142.222-142.223z m-1024 910.223c-45.511 0-85.334-39.823-85.334-85.334v-682.666c0-45.511 39.823-85.334 85.334-85.334h1024c45.51 0 85.333 39.823 85.333 85.334V725.333c0 45.511-39.822 85.334-85.333 85.334h-1024z"  horiz-adv-x="1365" />

    
    <glyph glyph-name="circle_img" unicode="&#58884;" d="M517.39-128H512C231.747-128 0 103.74699999999996 0 384S231.747 896 512 896s512-231.747 512-512c0-247.916-172.463-452.716-409.6-501.221-26.947-5.39-59.284-10.779-91.621-10.779h-5.39zM113.178 211.53700000000003l226.358 156.295c16.168 10.779 32.337 10.779 48.505 0L517.39 281.6l242.527 172.463c16.168 10.78 43.116 10.78 53.895-5.39l129.347-140.126c5.39 21.558 5.39 48.506 5.39 70.064 0 242.526-194.022 436.547-436.548 436.547S75.453 621.137 75.453 378.61c0-53.895 10.779-113.18 37.726-167.074z m291.032 199.41c-75.453 0-134.737 59.285-134.737 134.737s59.284 134.737 134.737 134.737 134.736-59.284 134.736-134.737-59.284-134.737-134.736-134.737z"  horiz-adv-x="1024" />

    
    <glyph glyph-name="delete" unicode="&#942321;" d="M988.16 711.6800000000001H803.84v76.8C803.84 849.92 752.64 896 696.32 896H327.68c-61.44 0-107.52-51.2-107.52-107.52v-71.68H35.84C15.36 711.6800000000001 0 696.3199999999999 0 675.84S15.36 640 35.84 640h952.32c20.48 0 35.84 15.36 35.84 35.84s-15.36 35.84-35.84 35.84z m-696.32 76.8c0 20.48 15.36 35.84 35.84 35.84h368.64c20.48 0 35.84-15.36 35.84-35.84v-71.68H291.84v71.68zM660.48 128V532.48c0 20.48-15.36 35.84-35.84 35.84-20.48 0-35.84-15.36-35.84-35.84V128c0-20.48 15.36-35.84 35.84-35.84 15.36 0 35.84 15.36 35.84 35.84z m-220.16 0V532.48c0 20.48-15.36 35.84-35.84 35.84-20.48 0-35.84-15.36-35.84-35.84V128c0-20.48 15.36-35.84 35.84-35.84 20.48 0 35.84 15.36 35.84 35.84z m399.36 440.32c-20.48 0-35.84-15.36-35.84-35.84v-547.84c0-20.48-15.36-35.84-35.84-35.84H256c-20.48 0-35.84 15.36-35.84 35.84V532.48c0 20.48-15.36 35.84-35.84 35.84-20.48 0-35.84-15.36-35.84-35.84v-547.84C148.48-76.79999999999995 194.56-128 256-128h512c61.44 0 107.52 51.2 107.52 107.52V527.36c0 20.48-15.36 40.96-35.84 40.96z"  horiz-adv-x="1024" />

    
    <glyph glyph-name="full_img" unicode="&#58887;" d="M1008.048 515.6569999999999c36.572 29.257 87.772 21.943 117.029-14.628l329.143-504.686c36.571-51.2-7.315-117.029-65.829-117.029H79.134c-73.143 0-102.4 80.457-58.514 131.657l365.714 358.4c29.257 29.258 73.143 29.258 102.4 7.315l168.229-124.343 351.085 263.314z m-599.771 14.629c-102.4 0-182.857 80.457-182.857 182.857S305.877 896 408.277 896s182.857-80.457 182.857-182.857-80.457-182.857-182.857-182.857z"  horiz-adv-x="1468" />

    
    <glyph glyph-name="padding_img" unicode="&#58893;" d="M1177.6 896c57.6 0 102.4-44.8 102.4-102.4v-819.2c0-57.6-44.8-102.4-102.4-102.4H108.8C51.2-128 6.4-83.20000000000005 6.4-25.600000000000023V793.6C6.4 851.2 51.2 896 108.8 896h1068.8zM102.4 819.2c-12.8 0-25.6-12.8-25.6-25.6v-652.8l313.6 217.6c12.8 6.4 32 6.4 44.8 0l166.4-115.2 307.2 230.4c12.8 12.8 38.4 12.8 51.2 0L1209.6 256V800c0 12.8-12.8 25.6-25.6 25.6H102.4zM352 384c-89.6 0-160 70.4-160 160s70.4 160 160 160 160-70.4 160-160-70.4-160-160-160z"  horiz-adv-x="1280" />

    
    <glyph glyph-name="title" unicode="&#58894;" d="M0 349.86699999999996h1092.267V281.6H0v68.267z m0-204.8h1092.267V76.79999999999995H0v68.267z m0-204.8h819.2V-128H0v68.267zM122.88 820.907v-327.68h88.747V820.907h129.706V896H0v-75.093z m314.027 6.826V896h-81.92v-68.267z m-81.92-40.96v-293.546h81.92V786.773z m232.106 0V875.52h-81.92v-88.747h-47.786v-54.613h47.786v-170.667c0-13.653 0-27.306 6.827-34.133l20.48-20.48c6.827-6.827 20.48-6.827 27.307-6.827h81.92v54.614h-20.48c-13.654 0-20.48 0-27.307 6.826-6.827 0-6.827 13.654-6.827 27.307V732.16h61.44v54.613h-61.44zM669.013 896v-402.773h81.92V896zM860.16 622.933c0-27.306 6.827-47.786 20.48-54.613 13.653-13.653 27.307-20.48 54.613-20.48 13.654 0 34.134 6.827 40.96 13.653 13.654 6.827 20.48 13.654 20.48 27.307h75.094c-13.654-34.133-27.307-61.44-54.614-75.093-27.306-20.48-54.613-27.307-88.746-27.307-20.48 0-47.787 6.827-61.44 13.653-20.48 6.827-34.134 20.48-47.787 34.134-13.653 13.653-20.48 27.306-27.307 47.786-6.826 20.48-13.653 40.96-13.653 61.44 0 20.48 6.827 40.96 13.653 61.44s20.48 34.134 34.134 47.787c13.653 13.653 27.306 27.307 47.786 34.133 20.48 6.827 40.96 13.654 61.44 13.654 27.307 0 47.787-6.827 68.267-13.654 20.48-6.826 34.133-20.48 47.787-40.96s20.48-34.133 27.306-54.613c6.827-20.48 6.827-40.96 6.827-61.44H860.16z m129.707 47.787c-6.827 20.48-13.654 34.133-20.48 47.787-6.827 13.653-27.307 13.653-47.787 13.653-13.653 0-27.307 0-34.133-6.827-6.827-6.826-13.654-6.826-20.48-13.653-6.827-6.827-6.827-13.653-13.654-20.48s0-13.653-6.826-20.48h143.36z"  horiz-adv-x="1092" />

    
    <glyph glyph-name="-x" unicode="&#58886;" d="M335.127 602.764L512 788.945l176.873-186.181c13.963-13.964 32.582-13.964 46.545 0 13.964 13.963 13.964 37.236 0 51.2L535.273 863.418c-13.964 13.964-32.582 13.964-46.546 0L288.582 653.964c-13.964-13.964-13.964-37.237 0-51.2 13.963-13.964 32.582-13.964 46.545 0z m353.746-437.528L512-20.945 335.127 165.236c-13.963 13.964-32.582 13.964-46.545 0-13.964-13.963-13.964-37.236 0-51.2l200.145-209.454c13.964-13.964 32.582-13.964 46.546 0l200.145 209.454c13.964 13.964 13.964 37.237 0 51.2-13.963 13.964-32.582 13.964-46.545 0zM69.818 435.2h884.364c23.273 0 41.89 18.618 41.89 41.89s-18.617 41.892-41.89 41.892H69.818c-23.273 0-41.89-18.618-41.89-41.891C32.581 453.818 51.2 435.2 69.817 435.2z m884.364-97.745H69.818c-23.273 0-41.89-18.619-41.89-41.891s18.617-41.891 41.89-41.891h884.364c23.273 0 41.89 18.618 41.89 41.89-4.654 23.273-23.272 41.892-41.89 41.892z"  horiz-adv-x="1024" />

    
    <glyph glyph-name="-" unicode="&#942324;" d="M398.872 152.966c-9.752 0-19.504 4.876-24.38 9.752-14.63 14.629-14.63 39.01 0 53.639L511.024 352.89c14.628 14.628 43.885 14.628 58.514 0l136.533-136.533c14.629-14.629 14.629-39.01 0-53.639s-39.01-14.628-53.638 0L540.282 274.871 428.13 162.71799999999996c-9.753-9.752-19.505-9.752-29.258-9.752zM535.406-105.47199999999998c-19.505 0-39.01 14.629-39.01 39.01V255.36599999999999c0 19.505 14.629 39.01 39.01 39.01s39.01-14.629 39.01-39.01v-321.828c0-24.381-19.506-39.01-39.01-39.01zM793.844 113.957c-19.505 0-39.01 14.628-39.01 39.01 0 19.504 14.629 39.009 39.01 39.009 107.276 0 190.171 87.771 190.171 190.171 0 97.524-73.143 180.42-170.666 190.171l-19.505 4.877-4.876 24.38C764.587 718.606 662.187 801.5 540.282 801.5s-224.305-82.895-248.686-199.923l-9.752-24.381-24.381-4.877c-97.524-9.752-170.667-92.647-170.667-190.171 0-107.276 87.772-190.171 190.172-190.171 19.504 0 39.01-14.629 39.01-39.01 0-19.505-14.63-39.01-39.01-39.01-73.143 0-136.534 29.258-190.172 78.02C38.034 240.73800000000006 8.777 309.004 8.777 382.14700000000005c0 126.781 87.772 234.057 209.676 258.438C237.958 703.975 272.091 762.49 325.73 801.5c63.39 48.762 136.533 78.02 209.676 78.02 78.019 0 151.162-24.381 209.676-73.143 48.762-43.886 87.771-97.524 107.276-160.915 121.905-29.257 209.676-136.533 209.676-258.438 0-73.143-29.257-136.533-78.019-190.171s-117.028-82.895-190.171-82.895z"  horiz-adv-x="1072" />

    
    <glyph glyph-name="dash_split" unicode="&#58895;" d="M1194.667-99.55600000000004h-210.49v56.89h221.867l5.69-56.89h-17.067z m-494.934 0H472.178v56.89h227.555v-56.89z m-512 0h-17.066c-79.645 0-142.223 62.578-142.223 142.223V76.79999999999995h56.89v-34.133c0-45.511 39.822-85.334 85.333-85.334h17.066v-56.889z m1149.156 261.69H1280V389.688h56.889v-227.556zM85.333 361.24300000000005H28.444V588.8h56.89v-227.556z m1251.556 312.89H1280v51.2c0 45.51-39.822 85.333-85.333 85.333V867.556c79.644 0 142.222-62.578 142.222-142.223v-51.2zM147.91 804.977l-17.067 56.889c11.378 5.689 28.445 5.689 39.823 5.689h227.555v-56.89H170.667c-5.69 0-17.067 0-22.756-5.688z m762.311 5.689H682.667V867.556h227.555v-56.89z"  horiz-adv-x="1365" />

    
    <glyph glyph-name="comp_text" unicode="&#58888;" d="M512 756.364h418.91c51.2 0 93.09-41.891 93.09-93.091v-605.091c0-51.2-41.89-93.091-93.09-93.091H512c-51.2 0-93.09 41.89-93.09 93.09V663.274c0 51.2 41.89 93.09 93.09 93.09zM651.636 616.727h232.728c27.927 0 46.545-18.618 46.545-46.545s-18.618-46.546-46.545-46.546H651.636c-27.927 0-46.545 18.619-46.545 46.546s18.618 46.545 46.545 46.545zM558.546 384h325.818c27.927 0 46.545-18.618 46.545-46.545s-18.618-46.546-46.545-46.546H558.545c-27.927 0-46.545 18.618-46.545 46.546S530.618 384 558.545 384z m0-232.727h325.818c27.927 0 46.545-18.618 46.545-46.546s-18.618-46.545-46.545-46.545H558.545c-27.927 0-46.545 18.618-46.545 46.545s18.618 46.546 46.545 46.546zM46.545 849.455h651.637c27.927 0 46.545-18.619 46.545-46.546s-18.618-46.545-46.545-46.545H46.545C18.618 756.364 0 774.982 0 802.909s18.618 46.546 46.545 46.546zM372.364 849.455c27.927 0 46.545-18.619 46.545-46.546v-791.273c0-27.927-18.618-46.545-46.545-46.545s-46.546 18.618-46.546 46.545V802.91c0 27.927 18.618 46.546 46.546 46.546z"  horiz-adv-x="1024" />

    
    <glyph glyph-name="qqq" unicode="&#942323;" d="M42.601778-49.313526000000024L443.8988 336.24420299999997l236.057424-173.108245 417.034316 338.348841 361.953785-519.325733zM42.601778-88.65676299999996c-15.737295 0-31.473591 7.868647-39.342238 23.604943-7.868647 15.737295 0 31.47459 7.868647 47.211885l401.297022 385.560725c15.736296 15.736296 31.473591 15.736296 47.210885 0l212.451482-157.372948 401.297022 322.612546c7.868647 7.867648 15.737295 7.867648 31.47459 7.867648 7.868647 0 23.604943-7.867648 23.604943-15.736295l361.955782-519.325734c7.867648-15.737295 7.867648-23.605942 0-39.343237s-23.606941-23.604943-31.475588-23.604943L42.601778-88.65776200000005zM443.8988 289.034316L137.024548-2.103639000000044l1243.234302 23.604943-291.136957 424.902964-385.560726-314.7429c-15.736296-7.867648-31.473591-7.867648-47.209886 0L443.8988 289.034316zM278.659202 698.199985a196.714187 196.714187 0 1 1 393.428374 0 196.714187 196.714187 0 1 1-393.428374 0z"  horiz-adv-x="1537" />

    
    <glyph glyph-name="yuanx" unicode="&#58896;" d="M532.48-128H512C230.4-128 0 102.4 0 384S230.4 896 512 896s512-230.4 512-512c0-179.2-92.16-332.8-230.4-424.96-66.56-51.2-148.48-87.04-245.76-87.04h-15.36zM117.76 143.36l256 158.72c15.36 10.24 30.72 10.24 40.96 0l122.88-76.8L768 373.76c15.36 10.24 35.84 10.24 51.2-5.12l133.12-128c15.36 40.96 20.48 87.04 20.48 138.24 0 256-204.8 460.8-460.8 460.8S51.2 634.88 51.2 378.88c0-81.92 25.6-168.96 66.56-235.52zM384 435.2c-71.68 0-128 56.32-128 128s56.32 128 128 128 128-56.32 128-128-56.32-128-128-128z"  horiz-adv-x="1024" />

    
    <glyph glyph-name="fangx" unicode="&#58897;" d="M1177.6 896c57.6 0 102.4-44.8 102.4-102.4v-819.2c0-57.6-44.8-102.4-102.4-102.4H108.8C51.2-128 6.4-83.2 6.4-25.6V793.6C6.4 851.2 51.2 896 108.8 896h1068.8zM89.6 825.6c-12.8 0-25.6-12.8-25.6-32v-832l320 275.2c12.8 12.8 32 12.8 44.8 0l166.4-147.2 313.6 288c12.8 12.8 38.4 12.8 51.2 0l256-275.2V793.6c0 19.2-12.8 32-25.6 32H89.6zM416 384c-89.6 0-160 70.4-160 160s70.4 160 160 160 160-70.4 160-160-70.4-160-160-160z"  horiz-adv-x="1280" />

    
    <glyph glyph-name="quanx" unicode="&#58898;" d="M0 896h1408v-1024H0z"  horiz-adv-x="1408" />

    
    <glyph glyph-name="shix" unicode="&#58899;" d="M1336.889-99.556H28.444V867.556H1336.89v-967.112zM85.333-42.666H1280V810.666H85.333v-853.334z"  horiz-adv-x="1365" />

    
    <glyph glyph-name="xux" unicode="&#58900;" d="M1336.889-99.556h-85.333v56.89H1280v256h56.889v-312.89z m-369.778 0H625.778v56.89H967.11v-56.89z m-625.778 0H28.444v85.334h56.89v-28.445h256v-56.889z m-256 369.778H28.444V611.556h56.89v-341.334zM1336.89 497.778H1280V839.11h56.889v-341.333zM1024 810.667H682.667V867.556H1024v-56.89z m-625.778 0H56.89V867.556h341.333v-56.89z"  horiz-adv-x="1365" />

    
    <glyph glyph-name="imagex" unicode="&#58901;" d="M232.727 593.455a116.364 116.364 0 1 1 232.728 0 116.364 116.364 0 1 1-232.728 0zM1024 505.018v-539.927c0-51.2-41.89-93.091-93.09-93.091H390.981c-13.964 46.545-18.618 93.09-18.618 139.636 0 283.928 228.072 512 512 512 46.545 0 93.09-4.654 139.636-18.618zM651.636-128H93.091C41.89-128 0-86.11 0-34.91V318.837c46.545 13.964 93.09 18.619 139.636 18.619 265.31 0 484.073-204.8 512-465.455zM288.582-128H139.636C60.51-128 0-67.49 0 11.636V756.364C0 835.49 60.51 896 139.636 896h744.728C963.49 896 1024 835.49 1024 756.364v-390.982c0-27.927-18.618-46.546-46.545-46.546s-46.546 18.619-46.546 46.546V756.364c0 27.927-18.618 46.545-46.545 46.545H139.636c-27.927 0-46.545-18.618-46.545-46.545v-744.728c0-27.927 18.618-46.545 46.545-46.545h148.946c27.927 0 46.545-18.618 46.545-46.546S316.51-128 288.582-128z"  horiz-adv-x="1024" />

    


  </font>
</defs>
</svg>
